<svg width="22" height="20" viewBox="0 0 22 20" fill="none" xmlns="http://www.w3.org/2000/svg">
<g clip-path="url(#clip0_535_680)">
<path d="M10.9966 12.5C12.97 12.5 14.5406 10.6812 14.5406 8.4375C14.5406 6.19375 12.9408 4.375 10.9966 4.375C9.02309 4.375 7.4525 6.19375 7.4525 8.4375C7.42156 10.6797 9.02344 12.5 10.9966 12.5ZM12.7153 13.75H9.28469C6.58625 13.75 4.4 16.082 4.4 18.957C4.4 19.5352 4.83656 20 5.37625 20H16.6238C17.1634 20 17.6 19.5352 17.6 18.957C17.6 16.082 15.4137 13.75 12.7153 13.75ZM17.6 6.25C19.1187 6.25 20.35 4.85078 20.35 3.125C20.35 1.39922 19.1194 0 17.6 0C16.0813 0 14.85 1.39922 14.85 3.125C14.85 4.85078 16.0806 6.25 17.6 6.25ZM6.32156 8.4375C6.32156 8.22465 6.35533 8.02227 6.37687 7.81602C6.00188 7.58203 5.58938 7.5 5.15281 7.5H3.02775C1.35575 7.5 0 9.13281 0 11.1445C0 11.5469 0.271116 11.875 0.605688 11.875H7.4635C6.76156 10.9453 6.32156 9.75391 6.32156 8.4375ZM4.4 6.25C5.91869 6.25 7.15 4.85078 7.15 3.125C7.15 1.39922 5.91937 0 4.4 0C2.88131 0 1.65 1.39922 1.65 3.125C1.65 4.85078 2.88131 6.25 4.4 6.25ZM18.9716 7.5H16.8458C16.4058 7.5 15.9906 7.61863 15.6131 7.82188C15.6338 8.02734 15.6681 8.22656 15.6681 8.4375C15.6681 9.7543 15.2288 10.9457 14.5283 11.875H21.3929C21.7284 11.875 22 11.5469 22 11.1445C22 9.13281 20.6456 7.5 18.9716 7.5Z" fill="white"/>
</g>
<defs>
<clipPath id="clip0_535_680">
<rect width="22" height="20" fill="white"/>
</clipPath>
</defs>
</svg>
